<svg width="2841" height="1984" xmlns="http://www.w3.org/2000/svg" xmlns:xlink="http://www.w3.org/1999/xlink" xml:space="preserve" overflow="hidden"><defs><clipPath id="clip0"><rect x="230" y="270" width="2841" height="1984"/></clipPath></defs><g clip-path="url(#clip0)" transform="translate(-230 -270)"><text fill="#D52B1E" font-family="Arial,Arial_MSFontService,sans-serif" font-weight="400" font-size="86" transform="matrix(1 0 0 1 280.5 373)">•<tspan fill="#000000" font-size="78" x="123.75" y="0">Key Business Drivers</tspan><tspan fill="#000000" font-size="69" x="165" y="98">–</tspan><tspan fill="#000000" font-size="69" x="268.125" y="98">Budget Expectations</tspan><tspan fill="#000000" font-size="69" x="165" y="194">–</tspan><tspan fill="#000000" font-size="69" x="268.125" y="194">Product Cost Targets</tspan><tspan fill="#000000" font-size="69" x="165" y="291">–</tspan><tspan fill="#000000" font-size="69" x="268.125" y="291">Manufacturing assumptions</tspan><tspan fill="#000000" font-size="69" x="165" y="387">–</tspan><tspan fill="#000000" font-size="69" x="268.125" y="387">Make versus buy guidelines</tspan><tspan font-size="91" x="0" y="496">•</tspan><tspan fill="#000000" font-size="83" x="123.75" y="496">Baseline Quality and Reliability Metrics</tspan><tspan font-size="86" x="0" y="605">•</tspan><tspan fill="#000000" font-size="78" x="123.75" y="605">Translation of PRD into preliminary engineering requirements (PDD </tspan><tspan fill="#000000" font-size="78" x="123.75" y="698">framework or Design Architecture) (Use QFD 2 wherever possible). Review </tspan><tspan fill="#000000" font-size="78" x="123.75" y="792">PRD for </tspan><tspan fill="#FF0000" font-weight="700" font-size="78" x="422.813" y="792">completeness, testability, and ambiguity</tspan></text><path d="M703.5 1173 1203.83 1173 1704.17 1173 2204.5 1173 2204.5 1177 1704.17 1177 1203.83 1177 703.5 1177Z" fill="#FF0000" fill-rule="evenodd"/><text fill="#D52B1E" font-family="Arial,Arial_MSFontService,sans-serif" font-weight="400" font-size="86" transform="matrix(1 0 0 1 280.5 1272)">•<tspan fill="#000000" font-size="78" x="123.75" y="0">CTQ List </tspan><tspan fill="#00B0F0" font-weight="700" font-size="69" x="453.177" y="0">(NUD’s &amp; Knowledge Gaps)</tspan><tspan font-size="86" x="0" y="107">•</tspan><tspan fill="#000000" font-size="78" x="123.75" y="107">Concepts</tspan><tspan fill="#000000" font-size="69" x="165" y="206">–</tspan><tspan fill="#000000" font-size="69" x="268.125" y="206">Potential Concepts and alternatives</tspan><tspan fill="#000000" font-size="69" x="165" y="302">–</tspan><tspan fill="#000000" font-size="69" x="268.125" y="302">CPM top level structure</tspan><tspan fill="#000000" font-size="69" x="165" y="398">–</tspan><tspan fill="#000000" font-size="69" x="268.125" y="398">New technology needs and readiness: internal and sourced </tspan><tspan fill="#00B0F0" font-weight="700" font-size="69" x="2098.59" y="398">(TRL)</tspan><tspan fill="#000000" font-size="69" x="165" y="494">–</tspan><tspan fill="#000000" font-size="69" x="268.125" y="494">EHS Checklist overview/issues</tspan><tspan font-size="86" x="0" y="600">•</tspan><tspan fill="#000000" font-size="78" x="123.75" y="600">Concept Selection Plan and Criteria </tspan><tspan fill="#00B0F0" font-weight="700" font-size="69" x="1383.02" y="600">(Knowledge Gap Closure Plans)</tspan><tspan font-size="86" x="0" y="707">•</tspan><tspan fill="#000000" font-size="78" x="123.75" y="707">Overall Risk Assessment and Mitigation Plans (design, process and </tspan><tspan fill="#000000" font-size="78" x="123.75" y="800">program level)</tspan></text></g></svg>