<svg width="3198" height="1959" xmlns="http://www.w3.org/2000/svg" xmlns:xlink="http://www.w3.org/1999/xlink" xml:space="preserve" overflow="hidden"><defs><clipPath id="clip0"><rect x="-8" y="495" width="3198" height="1959"/></clipPath></defs><g clip-path="url(#clip0)" transform="translate(8 -495)"><path d="M605 495 605 1705" stroke="#000000" stroke-width="8.02083" stroke-linejoin="round" stroke-miterlimit="10" fill="none" fill-rule="evenodd"/><path d="M605 1705 2778 1705" stroke="#000000" stroke-width="8.02083" stroke-linejoin="round" stroke-miterlimit="10" fill="none" fill-rule="evenodd"/><text font-family="Times New Roman,Times New Roman_MSFontService,sans-serif" font-weight="700" font-size="165" transform="matrix(1 0 0 1 91.6668 1270)">h(t)<tspan font-weight="400" font-size="165" x="2391.96" y="363">Time</tspan></text><path d="M798 908 1183 1678" stroke="#000000" stroke-width="8.02083" stroke-linejoin="round" stroke-miterlimit="10" fill="none" fill-rule="evenodd"/><path d="M1183 1678 2173 1678" stroke="#000000" stroke-width="8.02083" stroke-linejoin="round" stroke-miterlimit="10" fill="none" fill-rule="evenodd"/><path d="M0 0 357 743" stroke="#000000" stroke-width="8.02083" stroke-linejoin="round" stroke-miterlimit="10" fill="none" fill-rule="evenodd" transform="matrix(1 0 0 -1 2173 1678)"/><path d="M0 0 0.000360892 770" stroke="#000000" stroke-width="4.58333" stroke-linejoin="round" stroke-miterlimit="10" stroke-dasharray="4.58333 4.58333" fill="none" fill-rule="evenodd" transform="matrix(1 0 0 -1 1183.5 1678.5)"/><text font-family="Times New Roman,Times New Roman_MSFontService,sans-serif" font-weight="400" font-size="110" transform="matrix(1 0 0 1 1017.5 1036)">I</text><path d="M0 0 0.000360892 770" stroke="#000000" stroke-width="4.58333" stroke-linejoin="round" stroke-miterlimit="10" stroke-dasharray="4.58333 4.58333" fill="none" fill-rule="evenodd" transform="matrix(1 0 0 -1 2173.5 1678.5)"/><text font-family="Times New Roman,Times New Roman_MSFontService,sans-serif" font-weight="400" font-size="110" transform="matrix(1 0 0 1 1628.23 1030)">II<tspan font-size="110" x="627.917" y="0">III</tspan><tspan font-size="110" x="-1457.73" y="936">Region</tspan><tspan font-size="110" x="-1112.83" y="936">I Decreasing failure rate (</tspan><tspan font-family="Symbol,Symbol_MSFontService,sans-serif" font-weight="700" font-size="110" x="15.8125" y="936"></tspan><tspan font-weight="700" font-size="110" x="75.9688" y="936">&lt;1) </tspan><tspan font-size="110" x="257.583" y="936">Infant Mortality</tspan><tspan font-size="110" x="-1457.73" y="1134">Region II Constant failure rate (</tspan><tspan font-family="Symbol,Symbol_MSFontService,sans-serif" font-weight="700" font-size="110" x="-51.2188" y="1134"></tspan><tspan font-weight="700" font-size="110" x="8.9375" y="1134">=1)</tspan><tspan font-size="110" x="-1457.73" y="1332">Region III Increasing failure rate (</tspan><tspan font-family="Symbol,Symbol_MSFontService,sans-serif" font-weight="700" font-size="110" x="52.4791" y="1332"></tspan><tspan font-weight="700" font-size="110" x="112.635" y="1332">&gt;1) </tspan><tspan font-size="110" x="294.25" y="1332">Wear out</tspan></text></g></svg>