<svg width="2815" height="1917" xmlns="http://www.w3.org/2000/svg" xmlns:xlink="http://www.w3.org/1999/xlink" xml:space="preserve" overflow="hidden"><defs><clipPath id="clip0"><rect x="238" y="314" width="2815" height="1917"/></clipPath></defs><g clip-path="url(#clip0)" transform="translate(-238 -314)"><text fill="#D52B1E" font-family="Arial,Arial_MSFontService,sans-serif" font-weight="400" font-size="76" transform="matrix(1 0 0 1 280.5 403)">•<tspan fill="#000000" font-size="69" x="123.75" y="0">Manufacturing and Supplier capability for CF’s</tspan><tspan font-size="76" x="0" y="96">•</tspan><tspan fill="#000000" font-size="69" x="123.75" y="96">Product capability for customer CTQ’s</tspan><tspan font-size="76" x="0" y="192">•</tspan><tspan fill="#000000" font-size="69" x="123.75" y="192">Factory quality history</tspan><tspan font-size="76" x="0" y="289">•</tspan><tspan fill="#000000" font-size="69" x="123.75" y="289">Field reliability history</tspan><tspan fill="#000000" font-size="69" x="165" y="385">–</tspan><tspan fill="#000000" font-size="69" x="268.125" y="385">DPU</tspan><tspan fill="#000000" font-size="69" x="165" y="481">–</tspan><tspan fill="#000000" font-size="69" x="268.125" y="481">Warranty Dollars </tspan><tspan fill="#000000" font-size="69" x="799.792" y="481">-</tspan><tspan fill="#000000" font-size="69" x="841.615" y="481">(Part and Labor)</tspan><tspan font-size="76" x="0" y="577">•</tspan><tspan fill="#000000" font-size="69" x="123.75" y="577">Supplier quality history</tspan><tspan font-size="76" x="0" y="674">•</tspan><tspan fill="#000000" font-size="69" x="123.75" y="674">Safety history</tspan><tspan fill="#000000" font-size="69" x="165" y="770">–</tspan><tspan fill="#000000" font-size="69" x="268.125" y="770">Factory</tspan><tspan fill="#000000" font-size="69" x="165" y="866">–</tspan><tspan fill="#000000" font-size="69" x="268.125" y="866">Field Service</tspan><tspan font-size="76" x="0" y="962">•</tspan><tspan fill="#000000" font-size="69" x="123.75" y="962">Product Change history</tspan><tspan font-size="76" x="0" y="1059">•</tspan><tspan fill="#000000" font-size="69" x="123.75" y="1059">Product cost reduction identified by the design team for future product engineering </tspan><tspan fill="#000000" font-size="69" x="123.75" y="1141">consideration</tspan><tspan font-size="76" x="0" y="1237">•</tspan><tspan fill="#000000" font-size="69" x="123.75" y="1237">Product reliability improvements identified by the design team for future product </tspan><tspan fill="#000000" font-size="69" x="123.75" y="1320">engineering consideration</tspan><tspan font-size="76" x="0" y="1416">•</tspan><tspan fill="#000000" font-size="69" x="123.75" y="1416">Early Launch Containment</tspan><tspan fill="#000000" font-size="69" x="165" y="1512">–</tspan><tspan fill="#000000" font-size="69" x="268.125" y="1512">Key Finding</tspan><tspan fill="#000000" font-size="69" x="165" y="1609">–</tspan><tspan fill="#000000" font-size="69" x="268.125" y="1609">Items not closed</tspan><tspan font-size="76" x="0" y="1705">•</tspan><tspan fill="#000000" font-size="69" x="123.75" y="1705">Product specification adequacy/gaps</tspan></text></g></svg>