<svg width="3246" height="2295" xmlns="http://www.w3.org/2000/svg" xmlns:xlink="http://www.w3.org/1999/xlink" xml:space="preserve" overflow="hidden"><defs><clipPath id="clip0"><rect x="60" y="115" width="3246" height="2295"/></clipPath></defs><g clip-path="url(#clip0)" transform="translate(-60 -115)"><text font-family="Arial,Arial_MSFontService,sans-serif" font-weight="700" font-size="147" transform="matrix(1 0 0 1 336.588 302)">Relationship of Quality and Reliability</text><rect x="1210.5" y="440.5" width="770" height="220" stroke="#000000" stroke-width="3.4375" stroke-miterlimit="8" fill="none"/><text font-family="Arial,Arial_MSFontService,sans-serif" font-weight="700" font-size="110" transform="matrix(1 0 0 1 1408.8 591)">Quality</text><rect x="385.5" y="853.5" width="550" height="220" stroke="#000000" stroke-width="3.4375" stroke-miterlimit="8" fill="none"/><text font-family="Arial,Arial_MSFontService,sans-serif" font-weight="700" font-size="110" transform="matrix(1 0 0 1 428.255 1003)">Function</text><rect x="2090.5" y="853.5" width="495" height="220" stroke="#000000" stroke-width="3.4375" stroke-miterlimit="8" fill="none"/><text font-family="Arial,Arial_MSFontService,sans-serif" font-weight="700" font-size="110" transform="matrix(1 0 0 1 2200 1003)">Form<tspan font-size="83" x="-847" y="122">attributes</tspan></text><path d="M0.48586-1.64865 280.504 80.8732 279.532 84.1705-0.48586 1.64865ZM279.508 68.0371 302 89 271.735 94.4155Z" transform="matrix(1 0 0 -1 1788.5 1073.5)"/><path d="M1403.1 1064.17 1012.38 970.513 1013.19 967.171 1403.9 1060.83ZM1014.04 983.282 990.5 963.5 1020.45 956.539Z"/><path d="M0 0 0.000360892 55" stroke="#000000" stroke-width="3.4375" stroke-linejoin="round" stroke-miterlimit="10" fill="none" fill-rule="evenodd" transform="matrix(1 0 0 -1 825.5 853.5)"/><path d="M825.5 798.5 2255.5 798.5" stroke="#000000" stroke-width="3.4375" stroke-linejoin="round" stroke-miterlimit="10" fill="none" fill-rule="evenodd"/><path d="M0 0 0.000360892 55" stroke="#000000" stroke-width="3.4375" stroke-linejoin="round" stroke-miterlimit="10" fill="none" fill-rule="evenodd" transform="matrix(1 0 0 -1 2255.5 853.5)"/><path d="M1568.5 660.5 1568.5 798.5" stroke="#000000" stroke-width="3.4375" stroke-linejoin="round" stroke-miterlimit="10" fill="none" fill-rule="evenodd"/><path d="M825.5 1073.5 825.5 1375.5" stroke="#000000" stroke-width="3.4375" stroke-linejoin="round" stroke-miterlimit="10" fill="none" fill-rule="evenodd"/><path d="M303.5 1375.5 1403.5 1375.5" stroke="#000000" stroke-width="3.4375" stroke-linejoin="round" stroke-miterlimit="10" fill="none" fill-rule="evenodd"/><path d="M1403.5 1375.5 1403.5 1568.5" stroke="#000000" stroke-width="3.4375" stroke-linejoin="round" stroke-miterlimit="10" fill="none" fill-rule="evenodd"/><path d="M303.5 1375.5 303.5 1568.5" stroke="#000000" stroke-width="3.4375" stroke-linejoin="round" stroke-miterlimit="10" fill="none" fill-rule="evenodd"/><text font-family="Arial,Arial_MSFontService,sans-serif" font-weight="700" font-size="110" transform="matrix(1 0 0 1 583 1568)">Reliability</text><path d="M1105.5 1566.78 1380.58 1566.78 1380.58 1570.22 1105.5 1570.22ZM1376 1554.75 1403.5 1568.5 1376 1582.25Z"/><path d="M2.51127e-06-1.71875 224.083-1.71842 224.083 1.71908-2.51127e-06 1.71875ZM219.5-13.7497 247 0.000360892 219.5 13.7503Z" transform="matrix(-1 0 0 1 550.5 1568.5)"/><text fill="#A50021" font-family="Times New Roman,Times New Roman_MSFontService,sans-serif" font-weight="700" font-size="92" transform="matrix(1 0 0 1 115.5 1893)">RELIABILITY is the ability (probability) of an item to perform its INTENDED <tspan font-size="92" x="0" y="110">function under STATED conditions for a SPECIFIED period of time,  and </tspan><tspan font-size="92" x="0" y="220">conversely;</tspan><tspan fill="#000000" font-size="92" x="0" y="440">FAILURE</tspan><tspan fill="#000000" font-weight="400" font-size="92" x="429.756" y="440">is the </tspan><tspan fill="#000000" font-size="92" x="648.038" y="440">TERMINATION</tspan><tspan fill="#000000" font-weight="400" font-size="92" x="1342.48" y="440">of this ability (assuming the item had the ability)</tspan></text></g></svg>